<svg xmlns="http://www.w3.org/2000/svg" width="153" height="219" viewBox="0 0 153 219"><defs><style>.a{fill:#379ad6;}.b{fill:#c2002f;}.c{fill:#dc0031;}.d{fill:#fefefe;}.e{mix-blend-mode:saturation;isolation:isolate;}</style></defs><g transform="translate(-1374 -3524)"><g transform="translate(1013.701 1541.638)"><circle class="a" cx="76.5" cy="76.5" r="76.5" transform="translate(360.299 2010.362)"/><path class="b" d="M1574.572,2545.042c.872-.777,1.683-.085,2.441.184,13.512,4.791,27,9.646,40.527,14.394,1.659.583,2.231,1.367,2.021,3.085q-2.136,17.469-4.164,34.951-1.075,9.214-2.018,18.442c-.208,2.071-.771,3.553-2.854,4.675-11.247,6.058-22.384,12.319-33.576,18.479-.673.371-1.329,1.333-2.293.461a9.84,9.84,0,0,1-.531-3.5c0-9.582-.027-19.164.018-28.746.019-4.027.339-4.3,4.369-4.312,2.455,0,4.91-.019,7.357.012,1.764-.033,2.468,1.238,3.034,2.583,1.17,2.78,2.331,5.567,3.36,8.4a3.4,3.4,0,0,0,3.723,2.567c5.813-.166,5.735.792,3.191-4.967-6.734-15.246-13.555-30.453-20.281-45.7a82.606,82.606,0,0,1-4.326-10.546A27.6,27.6,0,0,1,1574.572,2545.042Z" transform="translate(-1138.847 -501.339)"/><path class="c" d="M929.728,2609.237c-2.939.022-5.886.185-8.814.021-2.277-.127-2.813.773-2.794,2.893.089,10.01.046,20.021.03,30.031,0,1.008.255,2.087-.534,2.963q-18.044-9.934-36.1-19.848a2.325,2.325,0,0,1-1.169-2.134q-2.074-17.988-4.181-35.971-1.116-9.584-2.227-19.169c-.114-.984-.515-1.981.95-2.5q21.335-7.485,42.642-15.053c1.034,1.16.526,2.574.618,3.882.161,2.284-.317,4.605.408,6.857-1.548,5.772-4.41,11.008-6.8,16.424q-9.2,20.8-18.525,41.539c-1.2,2.669-1,2.915,1.941,2.94.636.005,1.276-.048,1.906.006,2.025.174,3.209-.651,3.94-2.62,1.131-3.047,2.364-6.063,3.632-9.061a3.85,3.85,0,0,1,3.844-2.62c6.277-.03,12.555-.057,18.831.022C928.338,2607.854,929.465,2607.848,929.728,2609.237Z" transform="translate(-481.807 -506.771)"/><path class="d" d="M1186.9,2772.473c-4.1-.584-8.229-.146-12.344-.241-3.1-.072-6.205.061-9.3-.048a2.134,2.134,0,0,0-2.417,1.658c-1.365,3.639-2.868,7.225-4.293,10.841-.372.945-.774,1.61-2.016,1.568-2.851-.1-5.707-.031-8.56-.031-.279-.973.307-1.613.614-2.3q12.829-28.807,25.711-57.59c.313-.7.2-1.847,1.438-1.88,3.913,8.927,7.8,17.863,11.746,26.778q7.261,16.426,14.615,32.811c.757,1.68.79,2.416-1.371,2.207-2.666-.259-5.946,1.029-7.865-.5-1.792-1.427-2.146-4.628-3.2-7.016C1188.725,2776.646,1188.248,2774.366,1186.9,2772.473Z" transform="translate(-738.974 -670.007)"/><path class="c" d="M1456.479,3038.7h-8.732c-.476-.635,0-1.192.222-1.724q3.789-9.2,7.641-18.365c.187-.443.172-1.12.872-1.235,1.98,6.313,1.1,12.791,1.111,19.217A2.934,2.934,0,0,1,1456.479,3038.7Z" transform="translate(-1020.13 -944.85)"/><path class="b" d="M1592.3,3038.7l0-21.324c2.05,3,2.956,6.524,4.4,9.8,1.646,3.724,3.14,7.515,4.8,11.525Z" transform="translate(-1155.95 -944.85)"/></g><rect class="e" width="152" height="219" transform="translate(1375 3524)"/></g></svg>