<svg xmlns="http://www.w3.org/2000/svg" width="133.184" height="149.556" viewBox="0 0 133.184 149.556"><defs><style>.a{fill:#e8e8e8;}.b{fill:#919191;}</style></defs><g transform="translate(1254.585 2404.464)"><path class="a" d="M-1121.439-2329.84c0,10.108-.071,20.218.031,30.325a13.269,13.269,0,0,1-7.236,12.61q-25.794,14.737-51.479,29.665c-5.306,3.084-10.353,3.128-15.687.021q-25.6-14.911-51.34-29.563c-5.18-2.935-7.328-7.2-7.322-12.918.021-19.235.228-38.474-.108-57.7-.135-7.729,2.875-12.549,9.564-16.229,15.571-8.567,30.867-17.635,46.286-26.478a67.057,67.057,0,0,1,6.561-3.477c4.014-1.742,7.78-.683,11.388,1.4q12.747,7.357,25.511,14.684c8.852,5.1,17.674,10.253,26.556,15.3,4.918,2.8,7.394,6.793,7.311,12.558C-1121.544-2349.713-1121.442-2339.776-1121.439-2329.84Zm-66.312-44.4a37.5,37.5,0,0,0-15.289,2.545c-16.425,6.305-26.2,18.246-29.116,35.49-1.79,10.585.465,20.545,6.172,29.785,10.148,16.431,30.764,25.425,50.632,19.4a44.112,44.112,0,0,0,25.457-19.609c.576-.928.452-1.385-.456-1.9q-8.632-4.946-17.222-9.966c-.878-.514-1.369-.477-1.973.411-5.658,8.311-13.5,11.722-23.323,9.6-10.332-2.236-15.415-9.961-16.689-18.733a20.112,20.112,0,0,1,3.337-14.17,21.342,21.342,0,0,1,22.656-9.5,20.442,20.442,0,0,1,13.634,9.293,1.367,1.367,0,0,0,2.149.535q8.677-5.053,17.395-10.037c.986-.562,1.126-1.075.486-2.043C-1158.894-2366.733-1171.427-2373.911-1187.752-2374.238Zm35.53,49.76c-.2,1.385-.406,2.739-.568,4.1a2.391,2.391,0,0,0,.1,1.083,11.349,11.349,0,0,0,3.222.164c.407-.067.822-.983.963-1.576.3-1.271.427-2.582.62-3.845h5.327c-.248,1.88-.469,3.567-.687,5.223,3.4.908,4.246.452,4.6-2.335.373-2.9.371-2.961,3.245-3.051,1.365-.042,1.653-.725,1.6-1.877-.047-1.073.265-2.42-1.471-2.289-1.986.15-2.119-.5-1.756-2.495a6.259,6.259,0,0,0,.259-1.18c-.044-1.875.84-2.517,2.66-2.283a1.7,1.7,0,0,0,1.441-.717c.684-2.133-.1-3.229-2.3-3.5a2.5,2.5,0,0,1-.587-.288c.1-.647.218-1.314.3-1.986a10.171,10.171,0,0,0,.182-2.062c-.031-.393-.332-1-.64-1.1-2.274-.695-3.369.055-3.722,2.417a13.532,13.532,0,0,1-.406,2.207c-.113.345-.544.811-.854.83-1.465.087-2.938.039-4.618.039.261-1.594.516-2.83.64-4.08a1.637,1.637,0,0,0-.4-1.313,2.7,2.7,0,0,0-4.008,1.819c-.065.339-.082.687-.134,1.029-.374,2.467-.375,2.523-2.863,2.532-1.381.005-1.938.478-1.967,1.92-.033,1.628.322,2.585,2.19,2.314a5.413,5.413,0,0,1,1.335.195,23.1,23.1,0,0,0-.493,3.313c-.01,1.876-.857,2.523-2.671,2.4a1.881,1.881,0,0,0-1.522.917c-.649,2.083.051,3.015,2.188,3.247A5.389,5.389,0,0,1-1152.222-2324.478Z"/><path class="b" d="M-1146.619-2317.35c16.325.327,28.858,7.5,37.849,21.094.64.968.5,1.48-.486,2.043q-8.721,4.978-17.395,10.037a1.367,1.367,0,0,1-2.149-.535,20.442,20.442,0,0,0-13.634-9.293,21.342,21.342,0,0,0-22.656,9.5,20.111,20.111,0,0,0-3.336,14.17c1.274,8.772,6.358,16.5,16.689,18.733,9.822,2.125,17.664-1.286,23.323-9.6.6-.888,1.1-.925,1.973-.411q8.584,5.028,17.222,9.966c.908.52,1.031.976.456,1.9a44.112,44.112,0,0,1-25.457,19.609c-19.868,6.026-40.484-2.969-50.631-19.4-5.707-9.24-7.962-19.2-6.172-29.785,2.917-17.244,12.691-29.185,29.116-35.49A37.5,37.5,0,0,1-1146.619-2317.35Z" transform="translate(-41.133 -56.888)"/><path class="b" d="M-965.375-2211.994a5.423,5.423,0,0,0-.788-.227c-2.137-.232-2.837-1.163-2.188-3.247a1.881,1.881,0,0,1,1.522-.918c1.815.122,2.661-.524,2.671-2.4a23.09,23.09,0,0,1,.493-3.313,5.414,5.414,0,0,0-1.335-.195c-1.867.271-2.223-.686-2.19-2.314.029-1.442.586-1.915,1.967-1.92,2.488-.009,2.489-.065,2.863-2.532.052-.342.069-.69.134-1.03a2.7,2.7,0,0,1,4.008-1.818,1.637,1.637,0,0,1,.4,1.313c-.124,1.25-.379,2.486-.64,4.08,1.68,0,3.153.049,4.618-.039.31-.019.741-.485.854-.83a13.535,13.535,0,0,0,.406-2.207c.353-2.361,1.448-3.111,3.722-2.417.307.094.609.705.64,1.1a10.175,10.175,0,0,1-.182,2.062c-.086.671-.2,1.339-.3,1.986a2.5,2.5,0,0,0,.587.288c2.2.272,2.987,1.368,2.3,3.5a1.7,1.7,0,0,1-1.441.717c-1.82-.234-2.7.408-2.66,2.283a6.258,6.258,0,0,1-.259,1.18c-.363,2-.23,2.645,1.756,2.495,1.736-.131,1.424,1.216,1.471,2.289.051,1.152-.238,1.835-1.6,1.877-2.875.089-2.873.147-3.245,3.051-.358,2.788-1.2,3.243-4.6,2.335.218-1.657.44-3.343.687-5.223h-5.327c-.193,1.262-.319,2.574-.621,3.844-.141.593-.557,1.509-.963,1.576a11.34,11.34,0,0,1-3.222-.164,2.391,2.391,0,0,1-.1-1.083C-965.781-2209.255-965.572-2210.609-965.375-2211.994Zm5.076-4.247c1.732,0,3.106.06,4.469-.037a1.454,1.454,0,0,0,1.091-.786c.374-1.656.6-3.344.918-5.274-1.782,0-3.264-.05-4.737.04a1.3,1.3,0,0,0-.881.838C-959.774-2219.844-959.99-2218.2-960.3-2216.241Z" transform="translate(-186.847 -112.484)"/><path class="a" d="M-944.686-2197.518c.31-1.961.526-3.6.859-5.22a1.3,1.3,0,0,1,.881-.838c1.473-.09,2.954-.04,4.737-.04-.319,1.929-.544,3.618-.918,5.274a1.455,1.455,0,0,1-1.091.786C-941.58-2197.458-942.954-2197.518-944.686-2197.518Z" transform="translate(-202.46 -131.207)"/></g></svg>