<svg xmlns="http://www.w3.org/2000/svg" width="207.564" height="107.983" viewBox="0 0 207.564 107.983"><defs><style>.a{fill:#e8e8e8;}.b{fill:#919191;}</style></defs><g transform="translate(989.234 1449.805)"><path class="a" d="M-989.234-1394.8v-1.9c.033-.24.069-.48.1-.72.165-1.3.26-2.607.5-3.888a32.858,32.858,0,0,1,5.19-12.184,54.411,54.411,0,0,1,13.166-13.355,93.652,93.652,0,0,1,19.216-10.741,136.966,136.966,0,0,1,23.5-7.508c3.515-.794,7.062-1.459,10.612-2.087,2.716-.48,5.454-.846,8.191-1.194,2.125-.27,4.262-.458,6.4-.641,2.251-.192,4.505-.373,6.761-.487,2.373-.12,4.751-.152,7.127-.227.229-.007.456-.046.684-.07h4.67c.271.026.542.064.814.076,3.553.154,7.11.252,10.659.473q4.219.262,8.421.771c3.537.431,7.072.913,10.586,1.5a153.56,153.56,0,0,1,17.058,3.87,121.853,121.853,0,0,1,26.2,10.641,74.026,74.026,0,0,1,14.759,10.631,45.051,45.051,0,0,1,9.372,12.106,30.526,30.526,0,0,1,3.4,11.327c.051.57.117,1.139.175,1.709v1.816c-.032.226-.073.451-.1.678-.1.958-.143,1.925-.295,2.875a32.2,32.2,0,0,1-4.18,11.348,50.114,50.114,0,0,1-11.818,13.311,83.292,83.292,0,0,1-15.662,9.917,134.133,134.133,0,0,1-29.364,10.283c-4.368,1.022-8.767,1.888-13.209,2.517-3.06.433-6.126.838-9.2,1.181-2.244.25-4.5.416-6.755.55-2.961.176-5.925.376-8.889.4-4.335.032-8.672-.055-13.007-.152-2.172-.049-4.346-.184-6.511-.366-2.752-.231-5.5-.5-8.242-.841-2.91-.359-5.826-.714-8.706-1.252-4.248-.794-8.49-1.647-12.691-2.658a129.257,129.257,0,0,1-23.814-8.191,88.3,88.3,0,0,1-17.86-10.684,53.229,53.229,0,0,1-11.04-11.431,32.585,32.585,0,0,1-6.057-15.771C-989.114-1393.717-989.177-1394.258-989.234-1394.8Zm29.116,31.035c.182.014.281.028.38.028q6.4,0,12.8.007c.32,0,.406-.13.461-.419q1.326-7.041,2.67-14.079c.057-.3.142-.466.513-.464,4.381.032,8.762.036,13.142.065a23.02,23.02,0,0,0,9.294-1.849c12.342-5.273,17.114-18.205,15.076-28.981a13.169,13.169,0,0,0-8.048-10.019,22.044,22.044,0,0,0-8.9-1.891c-8.474-.044-16.949-.015-25.424-.015a2.212,2.212,0,0,1-.259,0c-.253-.03-.352.087-.4.331-.151.821-.323,1.637-.485,2.456q-1.752,8.871-3.5,17.742-1.622,8.214-3.244,16.429-1.747,8.85-3.492,17.7C-959.724-1365.754-959.917-1364.783-960.118-1363.764Zm95.253.029h5.534c2.508,0,5.016-.011,7.523.011.409,0,.555-.142.608-.514.072-.5.178-.991.272-1.486q1.191-6.254,2.374-12.51c.067-.36.205-.458.561-.456,3.214.014,6.428.008,9.642.008.908,0,1.819-.042,2.723.015a19.852,19.852,0,0,0,5.919-.5,24.6,24.6,0,0,0,16.84-13.388,26.067,26.067,0,0,0,2.685-9.941,24.122,24.122,0,0,0-.359-7.093,13.439,13.439,0,0,0-8-9.87,21.549,21.549,0,0,0-8.719-1.9c-8.6-.058-17.208-.019-25.812-.027-.324,0-.438.1-.5.423q-1.723,8.81-3.472,17.615-1.841,9.315-3.682,18.63-1.8,9.1-3.6,18.207C-864.506-1365.611-864.677-1364.709-864.866-1363.734Zm-43.153-14.98c.176.014.3.031.428.031,4.237,0,8.475,0,12.712.011.374,0,.454-.172.513-.468q1.824-9.166,3.656-18.33c.845-4.233,1.7-8.465,2.527-12.7.081-.412.246-.526.654-.515,1.152.029,2.306,0,3.459.011,2.608.017,5.217.006,7.824.085a6.4,6.4,0,0,1,2.074.514,1.947,1.947,0,0,1,1.235,1.746,8.333,8.333,0,0,1-.048,2.017c-.376,2.227-.812,4.444-1.231,6.663q-1.806,9.564-3.616,19.127c-.113.6-.214,1.2-.322,1.809.135.017.191.03.247.03q6.832,0,13.663.009c.359,0,.383-.207.425-.457q.316-1.895.638-3.788,1.063-6.212,2.128-12.424,1.07-6.255,2.139-12.509a12.315,12.315,0,0,0,.066-4.549,9.524,9.524,0,0,0-5.334-6.782,20.82,20.82,0,0,0-9.509-2.186c-3.877-.047-7.754-.011-11.631-.011h-.6l2.841-14.947h-4.546c-2.854,0-5.707,0-8.561-.005-.323,0-.534.057-.536.429a1.641,1.641,0,0,1-.064.295q-1.709,8.659-3.418,17.319-1.839,9.315-3.679,18.631-1.752,8.871-3.505,17.742C-907.6-1380.863-907.806-1379.807-908.019-1378.715Z"/><path class="b" d="M-652.579-1063.623c.2-1.019.394-1.99.586-2.961q1.746-8.85,3.492-17.7,1.621-8.215,3.244-16.429,1.752-8.871,3.5-17.742c.162-.819.334-1.635.485-2.456.045-.243.144-.36.4-.331a2.211,2.211,0,0,0,.259,0c8.475,0,16.95-.029,25.424.016a22.04,22.04,0,0,1,8.9,1.89,13.169,13.169,0,0,1,8.048,10.019c2.039,10.775-2.733,23.708-15.076,28.981a23.022,23.022,0,0,1-9.294,1.849c-4.381-.029-8.762-.033-13.142-.065-.371,0-.456.16-.513.464q-1.332,7.04-2.67,14.079c-.054.289-.141.42-.461.419q-6.4-.014-12.8-.007C-652.3-1063.6-652.4-1063.61-652.579-1063.623Zm19.258-25.617h.534c2.09,0,4.18-.025,6.269.008a20.866,20.866,0,0,0,4.33-.428,10.988,10.988,0,0,0,9-7.967,24.1,24.1,0,0,0,1.093-6.451,5.459,5.459,0,0,0-3.114-5.313,8.84,8.84,0,0,0-4.017-1.064c-3.4-.07-6.8-.055-10.2-.089-.32,0-.386.159-.427.406q-.4,2.428-.8,4.855-.933,5.6-1.868,11.2C-632.785-1092.5-633.046-1090.909-633.321-1089.24Z" transform="translate(-307.539 -300.14)"/><path class="b" d="M448.8-1063.618c.189-.975.36-1.877.538-2.778q1.8-9.1,3.6-18.207,1.841-9.315,3.682-18.63,1.741-8.807,3.472-17.615c.063-.322.176-.423.5-.423,8.6.008,17.209-.031,25.812.027a21.552,21.552,0,0,1,8.719,1.9,13.439,13.439,0,0,1,8,9.87,24.127,24.127,0,0,1,.359,7.093,26.073,26.073,0,0,1-2.685,9.941,24.6,24.6,0,0,1-16.84,13.388,19.848,19.848,0,0,1-5.919.5c-.9-.057-1.815-.015-2.723-.015-3.214,0-6.428.005-9.642-.008-.356,0-.494.1-.561.456q-1.172,6.258-2.374,12.51c-.094.495-.2.988-.272,1.486-.054.372-.2.518-.608.514-2.508-.021-5.015-.011-7.523-.011H448.8Zm19.264-25.646h.606c2.089,0,4.179-.025,6.267.009a20.464,20.464,0,0,0,4.285-.435,10.961,10.961,0,0,0,8.942-7.864,25.68,25.68,0,0,0,1.113-6.228,5.519,5.519,0,0,0-2.82-5.473,8.76,8.76,0,0,0-4.362-1.226c-3.37-.072-6.741-.056-10.112-.083-.279,0-.4.074-.446.374-.294,1.847-.616,3.689-.924,5.533q-1.116,6.682-2.228,13.365C468.276-1090.643,468.178-1089.993,468.062-1089.264Z" transform="translate(-1313.664 -300.116)"/><path class="b" d="M-50.171-1236.417c.213-1.092.416-2.148.624-3.2q1.752-8.871,3.505-17.742,1.84-9.315,3.68-18.631,1.709-8.659,3.418-17.319a1.65,1.65,0,0,0,.064-.295c0-.372.213-.43.536-.429,2.854.009,5.707.005,8.561.005h4.546l-2.841,14.947h.6c3.877,0,7.755-.036,11.631.011a20.82,20.82,0,0,1,9.509,2.186A9.524,9.524,0,0,1-1-1270.1a12.313,12.313,0,0,1-.066,4.549q-1.08,6.253-2.139,12.509-1.062,6.212-2.128,12.424-.324,1.893-.638,3.788c-.042.25-.066.458-.425.457q-6.832-.017-13.663-.009c-.056,0-.112-.013-.247-.03.108-.611.209-1.211.322-1.809q1.807-9.564,3.616-19.127c.419-2.219.854-4.436,1.231-6.663a8.33,8.33,0,0,0,.048-2.017,1.947,1.947,0,0,0-1.235-1.746,6.4,6.4,0,0,0-2.074-.514c-2.606-.078-5.216-.068-7.824-.085-1.153-.007-2.306.018-3.459-.011-.408-.01-.573.1-.654.515-.831,4.236-1.682,8.468-2.527,12.7q-1.83,9.164-3.656,18.33c-.059.3-.138.47-.513.468-4.237-.015-8.475-.009-12.712-.011C-49.869-1236.386-50-1236.4-50.171-1236.417Z" transform="translate(-857.848 -142.297)"/><path class="a" d="M-429.91-976.149c.276-1.669.536-3.257.8-4.845q.933-5.6,1.868-11.2.4-2.427.8-4.855c.041-.246.107-.409.427-.406,3.4.033,6.8.019,10.2.089a8.84,8.84,0,0,1,4.017,1.064,5.458,5.458,0,0,1,3.114,5.313,24.1,24.1,0,0,1-1.093,6.451,10.988,10.988,0,0,1-9,7.967,20.849,20.849,0,0,1-4.33.428c-2.089-.033-4.18-.008-6.269-.008Z" transform="translate(-510.951 -413.231)"/><path class="a" d="M671.546-976.117c.115-.729.214-1.379.322-2.028q1.112-6.683,2.228-13.365c.308-1.844.63-3.687.924-5.533.048-.3.167-.376.446-.374,3.371.027,6.743.012,10.112.083a8.761,8.761,0,0,1,4.362,1.226,5.518,5.518,0,0,1,2.82,5.473,25.678,25.678,0,0,1-1.113,6.228,10.961,10.961,0,0,1-8.942,7.864,20.464,20.464,0,0,1-4.285.435c-2.089-.033-4.178-.008-6.267-.008Z" transform="translate(-1517.148 -413.263)"/></g></svg>