<svg xmlns="http://www.w3.org/2000/svg" width="116" height="116" viewBox="0 0 116 116"><defs><style>.a{fill:#23f2b0;}.b{fill:#384e5c;}</style></defs><g transform="translate(-0.057)"><circle class="a" cx="58" cy="58" r="58" transform="translate(0.057)"/><g transform="translate(29.974 30)"><path class="b" d="M0,0V56.353H56.353V0ZM54,54H2.348V11.74H54ZM54,9.392H2.348V2.348H54Z"/><g transform="translate(49.309 4.696)"><rect class="b" width="2.348" height="2.348"/></g><g transform="translate(44.613 4.696)"><rect class="b" width="2.348" height="2.348"/></g><g transform="translate(39.917 4.696)"><rect class="b" width="2.348" height="2.348"/></g><g transform="translate(5.87 4.696)"><rect class="b" width="28.176" height="2.348"/></g><g transform="translate(36.738 22.65)"><path class="b" d="M1.66,0,0,1.66,7.388,9.048,0,16.436,1.66,18.1l9.048-9.048Z"/></g><g transform="translate(8.906 22.65)"><path class="b" d="M10.708,1.66,9.048,0,0,9.048,9.048,18.1l1.66-1.66L3.32,9.048Z"/></g><g transform="translate(21.225 19.512)"><g transform="translate(0)"><rect class="b" width="27.907" height="2.348" transform="matrix(0.378, -0.926, 0.926, 0.378, 0, 25.833)"/></g></g></g></g></svg>